<svg width="75" height="88" viewBox="0 0 75 88" fill="none" xmlns="http://www.w3.org/2000/svg">
<path fill-rule="evenodd" clip-rule="evenodd" d="M37.5787 2.47864C48.9037 9.17325 60.4765 13.958 72.191 17.0927C76.5155 50.0896 65.2834 73.3753 38.0914 85.7195C14.2833 78.1025 -1.73408 56.6621 2.53882 17.3491C14.842 14.3096 25.7979 9.07835 37.5787 2.47864Z" fill="#A3F0D5" stroke="black" stroke-width="0.2" stroke-miterlimit="22.9256"/>
<path fill-rule="evenodd" clip-rule="evenodd" d="M4.00363 18.2893C4.68066 18.1315 5.58289 17.8318 6.2466 17.6264C6.98283 17.399 7.79554 17.1712 8.47058 16.9446C11.9364 15.782 18.1826 13.6614 21.5516 12.0785L37.505 4.10237C37.7699 4.10237 40.8508 5.90059 41.2728 6.14591C43.7183 7.56681 48.6127 9.82705 51.2364 11.0528C55.3702 12.9844 66.5913 17.2607 71.0064 18.2893C71.0064 34.6546 72.6695 47.0662 64.52 61.2005C64.1282 61.88 63.8353 62.4559 63.3852 63.1423C62.1671 64.9995 60.9771 66.8523 59.5103 68.4973C58.9471 69.129 58.6755 69.5134 58.0574 70.1211C57.4591 70.7091 57.2047 71.157 56.6073 71.7476C55.5085 72.834 54.4935 73.775 53.3604 74.8251L44.2858 81.1339C42.7646 81.9503 39.0979 83.7539 37.505 83.7539C34.6465 83.7539 27.5953 79.402 25.1982 77.6006L21.7383 74.9072C19.8987 73.2815 18.0095 71.3185 16.3507 69.5262C14.453 67.4756 11.9679 63.8428 10.5515 61.3098C2.29039 46.5368 4.00363 35.2752 4.00363 18.2893ZM37.2081 0H37.6314C38.4469 0.119258 39.4449 0.916109 42.2887 2.39537C46.4823 4.57629 51.7517 7.32008 56.1354 9.05938C59.4029 10.3562 62.66 11.661 66.0712 12.7977C66.9479 13.0898 67.8074 13.3915 68.6334 13.6541C72.6171 14.9195 74.9377 14.5917 74.9377 17.6055C74.9377 28.9418 75.6487 42.8018 72.2673 52.8807C69.4419 61.3033 65.4095 68.2412 59.1698 74.4809C55.6034 78.0473 50.5195 82.2302 45.9378 84.4949C45.1834 84.868 44.7495 85.1462 44.0571 85.5201C43.4101 85.8694 42.7105 86.0586 42.0079 86.3764C37.8784 88.2452 35.6244 87.5229 31.7891 85.8801C29.0691 84.715 26.0259 82.6964 23.5912 81.0877C19.2908 78.2465 13.6559 72.698 10.4974 68.2007C9.69772 67.0625 8.90739 65.9904 8.15926 64.7275C-1.32474 48.7186 0.0723557 36.2355 0.0723557 17.6055C0.0723557 15.0138 1.39751 15.1648 3.85406 14.3793C4.76054 14.0892 5.5707 13.917 6.50522 13.6119C13.131 11.4474 19.8389 8.94777 26.0523 5.81079L30.6113 3.53299C35.0595 1.32685 36.2175 0.147586 37.2081 0Z" fill="#016367"/>
<path fill-rule="evenodd" clip-rule="evenodd" d="M41.1375 55.8936H38.1999V26.5173C46.9754 26.5173 44.8095 28.652 44.8095 50.7528C44.8095 53.2274 43.5119 55.8936 41.1375 55.8936ZM24.2461 22.1107H45.4441C47.3179 22.3548 48.9527 22.7432 50.1903 23.3395C56.0728 26.1745 58.722 31.7216 59.4976 37.3352V44.9717C59.0608 48.2583 58.1101 51.0601 57.0067 52.6685C53.4814 57.8069 48.3567 59.6889 42.4881 60.3002H24.2461V59.7076C24.324 59.724 24.4016 59.7354 24.479 59.7425H24.8438C25.741 59.6626 26.493 59.0011 26.6721 58.2621C26.7896 57.776 26.9086 57.9063 26.9086 57.3766H29.8326C30.6274 57.3766 31.2079 56.1678 31.0025 55.2526C30.7311 54.0458 29.717 54.3934 29.0793 53.9662C29.0793 51.9125 29.1485 52.7612 30.1226 52.3708C30.4934 52.2221 30.8572 51.9071 30.9767 51.5134C31.2577 50.5853 30.4515 49.2783 29.5402 49.2783H26.6877L26.7973 42.5098C27.1069 42.3611 27.8955 42.2138 28.438 41.9398L29.1527 41.5846C29.7258 41.2569 30.3249 40.4648 30.8082 40.0065C31.0359 39.7903 31.3059 39.6717 31.66 39.2181C33.1843 37.2661 33.6423 36.5718 34.1143 33.8997C34.391 32.3332 34.0106 30.6539 33.5106 29.2109C33.412 28.9262 33.2692 28.6877 33.1443 28.4367C32.6398 27.4266 32.0373 26.6589 31.2722 25.8873C31.0549 25.6677 30.9167 25.591 30.7022 25.3876C30.2062 24.917 29.272 24.3981 28.6519 24.0859C27.6463 23.5806 26.6154 22.905 25.4472 22.8367H24.3515L24.2461 22.1107Z" fill="#016367"/>
<path fill-rule="evenodd" clip-rule="evenodd" d="M16.3606 32.7867C16.3606 32.0292 16.5555 31.314 16.7968 30.6556C17.0764 29.8928 17.6671 29.1614 18.299 28.6636C18.3832 28.5974 18.4027 28.5608 18.4866 28.4942C18.7208 28.3084 19.016 28.1421 19.2843 28.0087C20.8043 27.2515 22.5572 27.2173 24.0863 27.9846C24.8217 28.3535 24.7209 28.36 25.2463 28.75C25.3857 28.8537 25.4594 28.9387 25.5789 29.0594L26.144 29.778C26.2267 29.8933 26.3032 30.0389 26.3874 30.1763C27.2836 31.6403 27.2046 33.7787 26.4154 35.2823C26.1284 35.8291 25.6758 36.3424 25.2217 36.727C23.5651 38.1315 21.3111 38.5049 19.4265 37.565C19.0358 37.3701 18.1308 36.7695 17.875 36.478C17.7486 36.3341 17.7475 36.286 17.5903 36.1208C17.4645 35.9891 17.4217 35.9129 17.3161 35.7531L16.86 34.9257C16.6008 34.3521 16.3606 33.4649 16.3606 32.7867ZM21.2556 23.2307H22.3926C23.5611 23.299 24.6973 23.5806 25.703 24.0862C26.3231 24.3978 27.2573 24.9171 27.7533 25.3876C27.9675 25.591 28.106 25.6677 28.3232 25.887C29.0884 26.6589 29.6909 27.4266 30.1951 28.4365C30.3206 28.6877 30.4631 28.9265 30.5617 29.2109C31.0617 30.6539 31.4421 32.3332 31.1653 33.8994C30.6934 36.5718 30.2354 37.2658 28.7111 39.2181C28.357 39.672 28.0873 39.7904 27.8592 40.0065C27.376 40.4648 26.7769 40.8042 26.2038 41.1322L25.4891 41.4872C24.9466 41.7611 24.158 41.9084 23.8484 42.0571V49.6874H26.7009C27.6119 49.6874 28.3088 50.5854 28.0275 51.5134C27.9083 51.9071 27.5443 52.2224 27.1737 52.3708C26.1995 52.7612 26.1304 51.9125 26.1304 53.9662C26.7681 54.3931 27.7825 54.0458 28.0533 55.2526C28.2589 56.1681 27.5672 56.9613 26.772 56.9613H23.8484C23.8484 57.4907 23.8407 57.776 23.7229 58.2621C23.5439 59.0011 22.792 59.6623 21.8952 59.7425H21.5298C21.2088 59.7136 20.8768 59.6068 20.5525 59.4014C19.9808 59.04 19.7378 58.5487 19.6335 57.8958C19.4919 57.01 19.5698 43.4412 19.5698 42.0571C18.8548 41.7141 18.1549 41.7673 16.4878 40.7178C16.2436 40.564 16.0711 40.4076 15.832 40.2326L15.238 39.7569C14.8431 39.4252 13.978 38.3663 13.7202 37.923C12.1579 35.2365 11.7993 33.0941 12.5803 30.0044C13.0392 28.1889 14.5083 26.2587 16.0235 25.1043C17.5013 23.9786 19.3783 23.339 21.2556 23.2307Z" fill="#016367"/>
</svg>
