<svg width="75" height="75" viewBox="0 0 75 75" fill="none" xmlns="http://www.w3.org/2000/svg">
<path fill-rule="evenodd" clip-rule="evenodd" d="M56.2979 19.4879C51.2455 18.0443 46.193 16.6005 41.1408 15.1572C39.6972 10.105 38.2537 5.0522 36.8101 0C26.7054 0 16.6007 0 6.49604 0C2.90847 0 0 2.9085 0 6.49607C0 26.8018 0 47.1072 0 67.4131C0 71.0007 2.90847 73.9092 6.49604 73.9092C18.2429 73.9089 29.9899 73.9089 41.7368 73.9089C36.5079 70.1242 33.3256 65.5761 31.9281 60.7728H15.1571C13.9604 60.7728 12.9918 59.8044 12.9918 58.6074C12.9918 57.4107 13.9604 56.442 15.1571 56.442H31.1476C31.042 55.0033 31.0833 53.5557 31.265 52.1116H15.1571C13.9604 52.1116 12.9918 51.143 12.9918 49.9463C12.9918 48.7493 13.9604 47.7809 15.1571 47.7809L32.2317 47.7812C32.7872 46.0512 33.5404 44.3459 34.4799 42.6883C34.6183 42.4437 34.7602 42.2024 34.9048 41.9645C34.474 42.5358 34.1451 43.0228 33.9918 43.4505H15.1571C13.9604 43.4505 12.9918 42.4822 12.9918 41.2852C12.9918 40.0885 13.9604 39.1195 15.1571 39.1195L36.9196 39.1198C38.3539 37.3755 40.007 35.8811 41.8803 34.6596C41.6497 34.7433 41.4003 34.7891 41.1405 34.7891H15.1569C13.9605 34.7891 12.9918 33.8205 12.9918 32.624C12.9918 31.4271 13.9605 30.4587 15.1569 30.4587H41.1405C42.3378 30.4587 43.3059 31.4271 43.3059 32.624C43.3059 33.2385 43.05 33.7935 42.6394 34.1873C46.368 31.9699 50.9169 30.7797 56.2979 30.7797C56.2979 27.0158 56.2979 23.2518 56.2979 19.4879V19.4879Z" fill="#016367"/>
<path fill-rule="evenodd" clip-rule="evenodd" d="M56.2979 19.4876H41.1408C38.7589 19.4876 36.8101 17.5391 36.8101 15.1572V0C37.3732 0 37.936 0.216532 38.3258 0.649602L55.6481 17.9721C56.0814 18.3617 56.2979 18.9248 56.2979 19.4876V19.4876Z" fill="#016367"/>
<path fill-rule="evenodd" clip-rule="evenodd" d="M35.7653 52.3844C35.7653 58.4645 36.511 62.4124 40.5734 67.0745C46.2831 73.6273 54.7816 75.4644 63.3211 72.0933C70.5137 69.2542 74.3504 61.1857 75 56.3104V53.7963C74.8991 53.2933 74.7225 52.909 74.4686 52.6782C73.8811 52.1437 71.4683 51.3635 71.1829 54.2743C70.8625 57.5467 70.2061 60.9223 68.0377 63.4937C65.3132 66.7246 61.9941 69.2393 57.6044 69.7058C54.9422 69.9886 52.7356 69.9406 50.4116 69.1256C44.5458 67.0684 39.5697 61.1677 39.5697 55C39.5697 49.9197 40.8147 46.2605 44.0262 43.049C47.4388 39.6364 51.0134 38.3549 56.2148 38.3549C58.5124 38.3549 59.8903 39.1261 61.684 39.544C61.4279 40.5031 60.7328 40.5317 60.7328 41.4462C60.7328 44.3106 64.6189 43.5863 67.8664 43.5863C70.6575 43.5863 70.0065 39.7322 70.0065 36.6906C70.0065 35.1546 68.7011 34.2222 67.576 34.5028C66.3818 34.8005 65.7493 36.0381 64.7751 36.6906C62.4297 36.144 61.3417 34.4022 54.8232 34.4777C50.8416 34.5235 47.7935 35.6615 45.2872 37.1764C40.3252 40.1759 35.7653 46.479 35.7653 52.3844V52.3844Z" fill="#016367"/>
<path fill-rule="evenodd" clip-rule="evenodd" d="M53.3614 47.1528C53.3614 57.6186 51.8397 55.9509 62.8729 55.9509C64.6484 55.9509 65.095 52.1463 62.3974 52.1463H57.1661C57.1661 49.1592 57.8378 45.0127 55.5014 45.0127C54.3261 45.0127 53.3614 45.9774 53.3614 47.1528V47.1528Z" fill="#016367"/>
</svg>
