<svg width="75" height="75" viewBox="0 0 75 75" fill="none" xmlns="http://www.w3.org/2000/svg">
<path fill-rule="evenodd" clip-rule="evenodd" d="M0 68.4074V68.664C0 69.3645 2.27021 71.2511 2.92733 71.7263C4.11792 72.5876 5.44878 73.2515 6.774 73.8694C8.39554 74.6254 10.4041 75.2426 12.1417 75.6893L15.0786 76.3464C17.0741 76.7497 19.8375 77.1184 21.95 77.2615C22.1714 77.2767 22.2739 77.3077 22.5038 77.3069C23.2936 77.3035 23.991 77.4384 24.7728 77.4336C25.0337 77.4322 25.1232 77.466 25.3283 77.4773C25.5221 77.4877 25.7342 77.4663 25.9277 77.4767C28.2815 77.604 29.8543 77.5198 32.1741 77.5198C32.6758 77.5198 33.0149 77.4759 33.5013 77.4781L36.7768 77.288C36.9706 77.2595 37.2579 77.226 37.4367 77.2204C38.887 77.1751 40.8741 76.8154 42.3543 76.619C43.1536 76.5128 43.9324 76.3599 44.7011 76.1844L45.8261 75.9405C47.5034 75.5941 50.1535 74.7863 51.6269 74.1258C51.7987 74.0486 51.9362 73.9894 52.1057 73.9202C53.6693 73.2813 55.1976 72.3882 56.5371 71.3781C57.3193 70.7883 58.0195 70.1211 58.6215 69.3549C58.915 68.9812 58.9963 68.8603 59 68.3807V68.3007C58.9955 67.3473 58.9569 66.5347 58.9572 65.5838C58.9575 64.2507 58.8462 62.8866 58.8305 61.5608C58.8259 61.1647 58.7409 60.6856 58.742 60.2803C58.7442 59.2303 58.4885 57.5383 58.3998 56.4725C58.3502 55.8762 58.155 54.6623 58.0164 54.0753C57.454 51.6958 57.0264 50.0281 55.7992 47.9928C55.6099 47.6787 55.4355 47.4297 55.2353 47.1447C55.1336 46.9999 55.0531 46.8951 54.941 46.7543L54.2275 45.9279C53.9757 45.6268 53.5416 45.2215 53.2422 44.9877C53.1068 44.8818 53.0042 44.7872 52.8685 44.6773L52.0863 44.09C51.1115 43.4166 50.0394 42.8088 48.9398 42.3595L46.9465 41.5717C44.4332 40.6926 41.8318 40.1231 39.2157 39.5905C38.9408 39.5347 38.2372 39.4555 38.0355 39.3589C37.6812 39.8882 36.9669 40.3842 36.4526 40.7278C35.567 41.3193 34.4959 41.8072 33.4241 42.1063C32.6087 42.3336 31.8029 42.5406 30.9334 42.5676C29.4093 42.615 29.8957 42.7031 28.1494 42.5702C27.2456 42.5017 26.4735 42.3654 25.6429 42.1249C24.1791 41.701 22.8919 41.0348 21.7098 40.111C21.5118 39.9563 21.0924 39.5499 20.9645 39.3589C20.7907 39.4423 18.6072 39.8262 18.3585 39.8764C17.5059 40.0482 16.6325 40.267 15.8191 40.46C14.4082 40.7943 12.9948 41.1979 11.6499 41.7243C10.7145 42.0905 9.76498 42.4792 8.89914 42.9096C7.89135 43.4109 6.93511 44.032 6.06195 44.7359C5.63157 45.0829 5.19048 45.4307 4.8308 45.8577L4.65279 46.0648C4.58181 46.1397 4.52887 46.18 4.4624 46.2594C2.64961 48.4212 1.58632 51.0288 1.04468 53.7942C0.955961 54.2485 0.873716 54.6175 0.806399 55.0957C0.714858 55.7453 0.571214 56.4886 0.514599 57.157L0.31771 59.3131C0.29067 59.4959 0.25997 59.8612 0.255464 60.0209C0.212651 61.5194 0.0782969 63.0288 0.0859018 64.5146C0.0875918 64.8402 0.0405524 64.9796 0.0419607 65.2832C0.0461856 66.3609 0 67.3137 0 68.4074V68.4074Z" fill="#016367"/>
<path fill-rule="evenodd" clip-rule="evenodd" d="M29.393 37.9471C32.7158 37.9471 35.9738 36.6678 38.1972 34.7288L39.3512 33.701C40.2061 32.8462 40.626 32.3226 41.3367 31.3652C41.4907 31.1576 41.6197 30.9444 41.7665 30.7255C41.9144 30.5053 42.04 30.3011 42.1724 30.0619C42.6909 29.1274 42.7365 29.0961 43.2841 27.9221L43.9023 26.3583C44.3876 24.8965 44.4792 24.3994 44.7851 22.9204C44.9132 22.301 44.9403 21.6903 45.0343 21.0307C45.1245 20.4003 45.0769 20.026 45.0938 19.4641C45.1002 19.2455 45.1386 19.2007 45.1394 18.9534C45.1408 18.554 45.094 18.3261 45.0949 17.9253C45.0966 17.2355 45.109 17.0406 45.0546 16.383C45.04 16.2058 45.0622 16.0072 45.0524 15.8289C45.0358 15.5182 44.9676 15.1296 44.9667 14.8023C44.9636 13.717 44.438 10.8136 44.126 9.73936C43.597 7.91925 42.9926 6.45263 41.8617 4.94432L41.1491 4.07398C39.6146 2.52343 38.215 1.63647 36.1476 0.94668L34.4666 0.488414C34.1283 0.414054 33.8791 0.383063 33.5247 0.317999C32.5152 0.132383 31.3945 0.0270397 30.238 0H29.0142C26.5093 0.0580226 23.9597 0.469819 22.0948 1.21566C21.8323 1.32044 21.5932 1.43058 21.3507 1.54099C21.133 1.64042 20.855 1.7728 20.64 1.90011C20.4037 2.04066 20.2004 2.15867 19.9722 2.30176C19.3176 2.71214 18.7157 3.21125 18.1729 3.75402C18.0769 3.85006 18.0127 3.91512 17.9161 4.01061C17.7916 4.13341 17.7662 4.17905 17.6575 4.30833C16.9886 5.10375 16.3731 5.94733 15.9304 6.90217C15.8045 7.17397 15.7121 7.39593 15.5884 7.67252C14.7229 9.60839 14.4006 11.6589 14.1316 13.7455L13.9497 16.2584C13.9469 16.4962 13.9063 16.5308 13.9035 16.7686C13.899 17.1234 13.9046 17.4843 13.9052 17.8397C13.9058 18.2557 13.8632 18.4997 13.8618 18.9098C13.8582 19.9122 14.0057 21.9038 14.2077 22.8849C14.3513 23.5823 14.3989 23.9211 14.5899 24.6419C14.9217 25.8956 15.1907 26.6997 15.6898 27.863C16.332 29.36 17.1347 30.6506 18.1039 31.9516L20.1818 34.1948C20.3849 34.3655 20.5482 34.5395 20.7502 34.6959C23.1711 36.5712 25.815 37.9471 29.393 37.9471V37.9471Z" fill="#016367"/>
</svg>
