<svg width="75" height="75" viewBox="0 0 75 75" fill="none" xmlns="http://www.w3.org/2000/svg">
<path fill-rule="evenodd" clip-rule="evenodd" d="M70.986 50.1233H60.9149V40.0523C60.9149 38.924 60.0288 38.0379 58.9005 38.0379H50.8436C49.7156 38.0379 48.8295 38.924 48.8295 40.0523V50.1233H38.7585C37.6302 50.1233 36.7441 51.0094 36.7441 52.1377V60.1944C36.7441 61.3224 37.6302 62.2088 38.7585 62.2088H48.8295V72.2798C48.8295 73.4078 49.7156 74.2942 50.8436 74.2942H58.9005C60.0288 74.2942 60.9149 73.4078 60.9149 72.2798V62.2088H70.986C72.114 62.2088 73 61.3224 73 60.1944V52.1377C73 51.0094 72.114 50.1233 70.986 50.1233Z" fill="#016367"/>
<path fill-rule="evenodd" clip-rule="evenodd" d="M56.7841 19.6562C51.688 18.1999 46.5919 16.7436 41.496 15.2881C40.0402 10.192 38.5842 5.09586 37.1282 0C26.9362 0 16.7436 0 6.55217 0C2.93389 0 0 2.93361 0 6.5519C0 27.0331 0 47.5139 0 67.9956C0 71.6139 2.93389 74.5475 6.55217 74.5475C18.4002 74.5473 35.0427 74.5473 46.891 74.5473C46.891 72.5201 46.891 66.534 46.891 63.5406C45.3942 63.5406 36.695 63.5406 34.9186 63.5406C34.9186 62.044 34.9186 62.5174 34.9186 61.2979H15.2884C14.0808 61.2979 13.1043 60.3209 13.1043 59.1138C13.1043 57.9062 14.0808 56.9298 15.2884 56.9298H34.9186C34.8121 55.4785 34.8537 54.0182 35.037 52.5616H15.2884C14.0808 52.5616 13.1043 51.5852 13.1043 50.3776C13.1043 49.1708 14.0808 48.1935 15.2884 48.1935L47.8887 48.5756C47.9128 48.5003 47.8887 45.5823 47.8887 43.5869L15.2884 43.826C14.0808 43.826 13.1043 42.8486 13.1043 41.6419C13.1043 40.4349 14.0808 39.4576 15.2884 39.4576L38.4106 39.5961C39.8575 37.8366 40.9048 37.1018 42.3954 35.1124C42.1628 35.1971 41.7583 35.0891 41.4954 35.0891H15.2878C14.0808 35.0891 13.1043 34.1127 13.1043 32.9057C13.1043 31.6986 14.0808 30.7216 15.2878 30.7216H41.4954C42.7036 30.7216 43.6795 31.6986 43.6795 32.9057C43.6795 33.5257 43.422 34.0852 43.0079 34.4827C43.226 34.3529 40.7127 37.0576 38.4106 39.5961C40.0057 39.5961 41.9025 39.5961 42.9005 39.5961C44.6222 40.8652 44.3968 42.5895 42.9005 43.5869C43.8979 43.5869 45.3185 43.5869 47.8887 43.5869C47.8887 41.0923 47.8887 37.1724 47.8887 35.6758C50.8818 35.6758 53.2114 35.6056 56.7841 35.6056C56.7841 31.8091 56.7841 23.4527 56.7841 19.6562V19.6562Z" fill="#016367"/>
<path fill-rule="evenodd" clip-rule="evenodd" d="M56.7841 19.656H41.4963C39.0938 19.656 37.1282 17.6903 37.1282 15.2878V0C37.6959 0 38.2638 0.218403 38.6567 0.655215L56.1289 18.1274C56.5657 18.5203 56.7841 19.088 56.7841 19.656V19.656Z" fill="#016367"/>
</svg>
