<svg width="75" height="75" viewBox="0 0 75 75" fill="none" xmlns="http://www.w3.org/2000/svg">
<path fill-rule="evenodd" clip-rule="evenodd" d="M38.9251 41.2411C41.4193 43.7351 41.4193 48.0108 38.9251 50.5048L33.759 55.6711C31.2647 58.1651 26.9894 58.1651 24.4954 55.6711L1.8705 32.8682C-0.623501 30.3741 -0.623501 26.0985 1.8705 23.6045L7.03681 18.4382C9.53081 15.9442 13.8064 15.9442 16.3004 18.4382L38.9251 41.2411Z" fill="#016367"/>
<path fill-rule="evenodd" clip-rule="evenodd" d="M58.6996 1.8705C61.1936 -0.623501 65.4689 -0.623501 67.9632 1.8705L73.1292 7.03681C75.6235 9.53081 75.6235 13.8064 73.1292 16.3004L33.937 55.3147C31.443 57.8087 27.1673 57.8087 24.6733 55.3147L19.507 50.1484C17.013 47.6544 17.013 43.3787 19.507 40.8847L58.6996 1.8705V1.8705Z" fill="#016367"/>
</svg>
