<svg width="75" height="75" viewBox="0 0 75 75" fill="none" xmlns="http://www.w3.org/2000/svg">
<path fill-rule="evenodd" clip-rule="evenodd" d="M75.3306 3.81804L52.2814 26.7187L75.3306 49.6197C75.7474 48.7487 76 47.7859 76 46.7579V6.67957C76 5.65154 75.7474 4.68871 75.3306 3.81804Z" fill="#016367"/>
<path fill-rule="evenodd" clip-rule="evenodd" d="M69.3203 0H6.67958C5.65127 0 4.68874 0.252892 3.81778 0.669376L33.2773 29.9803C35.882 32.5853 40.118 32.5853 42.7226 29.9803L72.1822 0.669376C71.3112 0.252892 70.3486 0 69.3203 0Z" fill="#016367"/>
<path fill-rule="evenodd" clip-rule="evenodd" d="M0.669376 3.81804C0.252892 4.68871 0 5.65154 0 6.67957V46.7579C0 47.7862 0.252892 48.7487 0.669376 49.6197L23.7186 26.7187L0.669376 3.81804V3.81804Z" fill="#016367"/>
<path fill-rule="evenodd" clip-rule="evenodd" d="M49.1329 29.8671L45.8711 33.1289C41.531 37.469 34.4689 37.469 30.1286 33.1289L26.8673 29.8671L3.81778 52.768C4.68874 53.1845 5.65127 53.4374 6.67958 53.4374H69.3203C70.3486 53.4374 71.3112 53.1845 72.1822 52.768L49.1329 29.8671Z" fill="#016367"/>
</svg>
