<svg width="75" height="75" viewBox="0 0 75 75" fill="none" xmlns="http://www.w3.org/2000/svg">
<path fill-rule="evenodd" clip-rule="evenodd" d="M0.289154 51.0196C0.289154 52.0732 1.48024 53.5475 2.25233 54.1148C3.26829 54.8606 4.22806 55.5001 5.92569 55.5001H58.9688C60.3975 55.5001 62.3076 54.5597 63.1242 53.5851C64.3543 52.1168 64.4881 51.1562 65.0574 49.448L69.6458 35.8253C70.3774 33.6305 74 23.4267 74 21.9687C74 20.1398 73.7772 19.121 72.5821 17.6054C72.3873 17.3584 72.0439 17.0244 71.775 16.8227C70.3486 15.752 69.1877 15.3202 66.7736 15.3202H16.4766C14.2424 15.3202 12.8109 15.7312 11.5343 16.7372C9.45217 18.378 9.24796 20.9134 8.4365 23.3232C7.44393 26.271 6.47418 30.3342 5.47562 33.3701L3.98932 38.3877C3.85556 38.8663 3.73405 39.1427 3.61312 39.6013L0.289154 51.0196V51.0196Z" fill="#016367"/>
<path fill-rule="evenodd" clip-rule="evenodd" d="M0 5.78114V30.6407C0 31.8606 2.10208 32.9767 3.03932 30.9339C3.27348 30.4231 3.47057 29.572 3.64084 28.934L6.95654 17.941C7.30536 17.1495 8.06632 15.9838 8.68069 15.3289L8.8253 15.1846C8.93683 15.0813 9.06517 14.9963 9.21605 14.8529C12.8689 11.3715 17.7986 12.4296 23.8476 12.4296C36.0847 12.4296 48.3216 12.4296 60.5587 12.4296C62.5743 12.4296 64.4611 12.6769 64.4611 10.8398C64.4611 9.70977 63.3444 8.24858 62.6896 7.69725C62.5042 7.54095 62.2278 7.34073 62.0316 7.19897C61.7481 6.99447 61.5239 6.9146 61.1856 6.74404C59.3719 5.82991 56.6064 6.07035 54.4883 6.07035H29.918C29.6199 5.97965 25.8898 2.11376 25.1126 1.33682C24.6568 0.881037 24.0538 0 23.2695 0H5.78114C5.07066 0 3.92349 0.336548 3.46942 0.5787C3.25351 0.694215 3.2518 0.731876 3.03018 0.862222C2.84849 0.969751 2.74981 0.993126 2.57241 1.12718C2.40527 1.25325 2.36561 1.33626 2.19362 1.47088L1.47088 2.19362C0.676254 3.2093 0 4.20444 0 5.78114V5.78114Z" fill="#016367"/>
</svg>
