<svg width="74" height="74" viewBox="0 0 74 74" fill="none" xmlns="http://www.w3.org/2000/svg">
<path d="M9.60676 28.4378L26.7917 8.02138L24.8394 6.37808L7.65444 26.7945L9.60676 28.4378Z" fill="#016367"/>
<path fill-rule="evenodd" clip-rule="evenodd" d="M48.4827 22.5779L47.1292 20.4138L65.0691 8.93124L66.4227 11.0953L48.4827 22.5779Z" fill="#016367"/>
<path d="M43.3798 20.4147L44.9108 18.3733L30.6212 7.65609L29.0902 9.69746L43.3798 20.4147Z" fill="#016367"/>
<path fill-rule="evenodd" clip-rule="evenodd" d="M2.55176 54.8623H10.207C11.6164 54.8623 12.7588 56.0047 12.7588 57.414V74.0001H0V57.414C0 56.0047 1.14241 54.8623 2.55176 54.8623V54.8623Z" fill="#016367"/>
<path fill-rule="evenodd" clip-rule="evenodd" d="M22.9655 37.0001H30.6208C32.0301 37.0001 33.1725 38.1425 33.1725 39.5518V73.9999H20.4141V39.5518C20.4138 38.1425 21.5562 37.0001 22.9655 37.0001V37.0001Z" fill="#016367"/>
<path fill-rule="evenodd" clip-rule="evenodd" d="M43.3792 44.6554H51.0345C52.4438 44.6554 53.5862 45.7978 53.5862 47.2072V74H40.8278V47.2072C40.8278 45.7978 41.9702 44.6554 43.3792 44.6554V44.6554Z" fill="#016367"/>
<path fill-rule="evenodd" clip-rule="evenodd" d="M63.793 34.4485H71.4482C72.8576 34.4485 74 35.5909 74 37.0003V74.0001H61.2415V37.0003C61.2415 35.5909 62.3839 34.4485 63.793 34.4485V34.4485Z" fill="#016367"/>
<path d="M6.37938 37C9.90261 37 12.7588 34.1439 12.7588 30.6206C12.7588 27.0974 9.90261 24.2413 6.37938 24.2413C2.85614 24.2413 0 27.0974 0 30.6206C0 34.1439 2.85614 37 6.37938 37Z" fill="#016367"/>
<path d="M26.7931 12.7588C30.3164 12.7588 33.1725 9.90261 33.1725 6.37938C33.1725 2.85614 30.3164 0 26.7931 0C23.2699 0 20.4138 2.85614 20.4138 6.37938C20.4138 9.90261 23.2699 12.7588 26.7931 12.7588Z" fill="#016367"/>
<path d="M67.6206 15.3107C71.1439 15.3107 74 12.4545 74 8.93129C74 5.40805 71.1439 2.5519 67.6206 2.5519C64.0974 2.5519 61.2412 5.40805 61.2412 8.93129C61.2412 12.4545 64.0974 15.3107 67.6206 15.3107Z" fill="#016367"/>
<path d="M47.2068 28.0691C50.7301 28.0691 53.5862 25.2129 53.5862 21.6897C53.5862 18.1665 50.7301 15.3103 47.2068 15.3103C43.6836 15.3103 40.8275 18.1665 40.8275 21.6897C40.8275 25.2129 43.6836 28.0691 47.2068 28.0691Z" fill="#016367"/>
</svg>
