<svg width="75" height="75" viewBox="0 0 75 75" fill="none" xmlns="http://www.w3.org/2000/svg">
<path fill-rule="evenodd" clip-rule="evenodd" d="M17.2852 17.3821H26.5136V28.7247H17.2852V17.3821V17.3821ZM10.84 14.7305V31.376C10.84 33.3548 11.9507 35.0586 13.7696 35.0586H29.8828C30.7411 35.0586 31.5412 34.5453 31.9759 34.0703C32.439 33.5646 32.8124 32.6072 32.8124 31.6708V14.1413C32.8124 13.1487 32.2866 12.3293 31.7553 11.8165C31.2176 11.2972 30.3149 10.9005 29.2967 10.9005H14.6484C12.1708 10.9005 10.84 12.239 10.84 14.7305V14.7305Z" fill="#016367"/>
<path fill-rule="evenodd" clip-rule="evenodd" d="M14.0626 44.4862H38.8184C40.754 44.4862 42.1876 43.0447 42.1876 41.0981V17.2346C42.1876 16.3354 41.8401 15.4178 41.4213 14.9118C40.185 13.4195 37.5868 13.4382 36.3829 15.2275C35.6963 16.248 35.8888 16.9945 35.8888 18.5603L35.8761 37.8445C35.7102 38.37 33.2519 38.152 32.2267 38.152C30.416 38.152 14.0155 37.9839 13.12 38.2352C9.79427 39.169 10.3968 44.4862 14.0626 44.4862V44.4862Z" fill="#016367"/>
<path fill-rule="evenodd" clip-rule="evenodd" d="M50.9765 45.3704C50.9765 49.4578 54.9232 48.7582 57.7148 48.7582V58.0386H49.2189V50.8204C49.2189 50.3928 49.0151 50.0748 48.83 49.7384C47.2729 46.9059 42.9199 47.9351 42.9199 51.4099V61.132C42.9199 63.1633 44.4208 64.5199 46.4355 64.5199H60.3516C62.8292 64.5199 64.1601 63.1817 64.1601 60.6899V45.9595C64.1601 44.9567 63.8236 44.1244 63.373 43.5103C62.9763 42.9697 62.1132 42.4243 61.2304 42.4243H53.9064C52.3899 42.4243 50.9765 43.8453 50.9765 45.3704V45.3704Z" fill="#016367"/>
<path fill-rule="evenodd" clip-rule="evenodd" d="M17.2852 53.03H25.7814V58.0383H17.2852V53.03V53.03ZM10.84 50.231V60.6896C10.84 63.1814 12.1708 64.5196 14.6484 64.5196H28.5645C30.5793 64.5196 32.0801 63.163 32.0801 61.1317V49.7892C32.0801 48.2057 30.7045 46.6957 29.1505 46.6957H13.9161C12.2029 46.6957 10.84 48.1903 10.84 50.231V50.231Z" fill="#016367"/>
<path fill-rule="evenodd" clip-rule="evenodd" d="M51.2695 17.3821H57.7147V23.8634H51.2695V17.3821V17.3821ZM44.9707 14.2887C44.9707 16.4255 44.7208 26.9018 45.2137 28.1855L45.9082 29.2548C46.3838 29.7962 47.3634 30.1977 48.3398 30.1977H60.7909C62.811 30.1977 64.16 28.6883 64.16 26.6622V14.7305C64.16 12.239 62.8292 10.9005 60.3516 10.9005H48.4863C46.4716 10.9005 44.9707 12.2571 44.9707 14.2887V14.2887Z" fill="#016367"/>
<path fill-rule="evenodd" clip-rule="evenodd" d="M0 8.69091V24.4526C0 26.8007 3.24364 28.5438 5.34049 26.435C5.3615 26.414 5.53441 26.2115 5.5452 26.1988C6.89445 24.5798 6.29905 21.5426 6.29905 18.5604C6.29905 17.2362 6.12585 9.36979 6.46828 8.27211C6.80218 7.20197 7.90043 6.36607 9.07591 6.32774C13.6617 6.17924 19.5533 6.49043 24.176 6.34023C26.8424 6.25363 28.1968 2.94069 26.4097 0.988372C25.9747 0.513352 25.1749 0 24.3166 0H8.64264C4.28654 0 0 4.31039 0 8.69091V8.69091Z" fill="#016367"/>
<path fill-rule="evenodd" clip-rule="evenodd" d="M0 50.9675V66.7292C0 71.1097 4.28654 75.4204 8.64264 75.4204H24.3166C26.569 75.4204 28.3118 72.3613 26.427 70.2045C24.8549 68.4055 22.249 69.0861 18.457 69.0861C17.1402 69.0861 9.31783 69.2602 8.22611 68.9157C7.53899 68.6988 6.91859 68.123 6.59008 67.4677C6.47083 67.23 6.32062 66.6395 6.29706 66.2891C6.08411 63.1232 6.43108 55.0368 6.30501 51.1086C6.21898 48.4272 2.92451 47.0654 0.982979 48.8627C0.510515 49.3 0 50.1043 0 50.9675V50.9675Z" fill="#016367"/>
<path fill-rule="evenodd" clip-rule="evenodd" d="M47.7538 3.09345C47.7538 4.0063 48.115 4.69171 48.5729 5.21585C50.1451 7.01485 52.751 6.33398 56.5429 6.33398C57.8598 6.33398 65.6822 6.15993 66.7739 6.50434C67.4613 6.72126 68.0814 7.29737 68.4099 7.95268C68.5292 8.19034 68.6794 8.78092 68.7029 9.13101C68.9159 12.2969 68.5689 20.3835 68.695 24.3115C68.7239 25.2115 69.168 25.941 69.6595 26.435C71.7595 28.5469 75 26.7984 75 24.4526V8.69091C75 4.32317 70.7035 0 66.3574 0H50.6837C49.0153 0 47.7538 1.68373 47.7538 3.09345Z" fill="#016367"/>
<path fill-rule="evenodd" clip-rule="evenodd" d="M47.7538 72.1798C47.7538 73.8028 49.0085 75.4206 50.6837 75.4206H66.3574C70.7013 75.4206 75 71.0977 75 66.7294V50.9678C75 48.7025 71.9579 46.9501 69.8131 48.8454C68.024 50.4263 68.7012 53.0467 68.7012 56.8599C68.7012 58.1845 68.8741 66.0506 68.5317 67.1482C68.4411 67.4384 68.1521 67.922 67.9346 68.1684C67.7824 68.3408 67.2762 68.7002 67.0916 68.7936C66.8554 68.9135 66.2679 69.0645 65.9198 69.0884C62.7716 69.3024 54.73 68.9535 50.824 69.0801C49.186 69.1335 47.7538 70.6934 47.7538 72.1798V72.1798Z" fill="#016367"/>
<path fill-rule="evenodd" clip-rule="evenodd" d="M44.5312 35.9425C44.5312 38.107 44.2285 40.7751 44.9199 42.0332C45.5093 43.105 46.6399 43.795 47.8145 43.6664C50.6428 43.3569 50.8302 41.3378 50.8302 39.3307H62.2559C62.947 39.3307 63.771 38.6816 64.1231 38.2623C65.1861 36.9954 65.1603 35.3585 64.0734 34.1149C63.4678 33.4215 62.7114 32.9964 61.5234 32.9964H47.9003C46.0956 32.9964 44.5312 34.2404 44.5312 35.9425V35.9425Z" fill="#016367"/>
<path fill-rule="evenodd" clip-rule="evenodd" d="M34.4237 49.9365V57.4488C34.4237 59.6916 37.4394 61.5735 39.8102 59.4775C40.2111 59.1229 40.7228 58.0426 40.7228 57.3018C40.7228 55.645 40.9919 49.9513 40.4334 48.7543C38.9133 45.4964 34.4237 46.8167 34.4237 49.9365V49.9365Z" fill="#016367"/>
</svg>
